# xmcd
#
# Track frame offsets:
#	150
#	14774
#	26528
#	38948
#	49820
#	63137
#	74376
#	87142
#	99075
#	111550
#	123208
#	136153
#	150216
#	160527
#	173075
#	184939
#
# Disc length: 2626 seconds
#
# Revision: 1
# Processed by: cddbd v1.5.2PL0 Copyright (c) Steve Scherf et al.
# Submitted via: audiograbber 1.83.01
#
DISCID=c40a4010
DTITLE=Peñaranda y su conjunto - Peñaranda Sus Grandes Exitos
DYEAR=2016
DGENRE=Bailable
TTITLE0=La pringamosa
TTITLE1=Me va gustando
TTITLE2=La inyección
TTITLE3=Quien será
TTITLE4=La batea
TTITLE5=Las secretarias
TTITLE6=La panadera 
TTITLE7=Las cosas del siglo
TTITLE8=María Teresa
TTITLE9=El peluquero
TTITLE10=El jueguito
TTITLE11=El coco de Rosa
TTITLE12=Qué polvo
TTITLE13=Las cuatro bodas
TTITLE14=El clavo
TTITLE15=La fotografía
EXTD=Música antigua de Peñaranda y su conjunto
EXTT0=
EXTT1=
EXTT2=
EXTT3=
EXTT4=
EXTT5=
EXTT6=
EXTT7=
EXTT8=
EXTT9=
EXTT10=
EXTT11=
EXTT12=
EXTT13=
EXTT14=
EXTT15=
PLAYORDER=
